<svg width="401" height="400" viewBox="0 0 401 400" fill="none" xmlns="http://www.w3.org/2000/svg">
<path d="M350.875 266.667V133.333C350.869 127.488 349.322 121.747 346.389 116.686C343.457 111.625 339.242 107.423 334.167 104.5L217.208 37.8333C212.128 34.9077 206.366 33.3675 200.5 33.3675C194.634 33.3675 188.872 34.9077 183.792 37.8333L66.8333 104.5C61.7584 107.423 57.5432 111.625 54.6105 116.686C51.6779 121.747 50.131 127.488 50.125 133.333V266.667C50.131 272.512 51.6779 278.253 54.6105 283.314C57.5432 288.375 61.7584 292.577 66.8333 295.5L183.792 362.167C188.872 365.092 194.634 366.632 200.5 366.632C206.366 366.632 212.128 365.092 217.208 362.167L334.167 295.5C339.242 292.577 343.457 288.375 346.389 283.314C349.322 278.253 350.869 272.512 350.875 266.667Z" stroke="black" stroke-width="16" stroke-linecap="round" stroke-linejoin="round"/>
<path d="M54.9704 116.667L200.5 200L346.03 116.667" stroke="black" stroke-width="16" stroke-linecap="round" stroke-linejoin="round"/>
<path d="M200.5 366.667V200" stroke="black" stroke-width="16" stroke-linecap="round" stroke-linejoin="round"/>
</svg>
