<svg xmlns="http://www.w3.org/2000/svg" viewBox="-11.009 -11.159 149.117 149.117" fill="currentColor" aria-hidden="true"><path d="M 25.694,79.922 C 25.694,86.346 20.502,91.538 14.078,91.538 C 7.654,91.538 2.462,86.346 2.462,79.922 C 2.462,73.498 7.654,68.306 14.078,68.306 L 25.694,68.306 L 25.694,79.922"/><path d="M 35.384,81.98 C 35.384,75.556 40.576,70.364 47,70.364 C 53.424,70.364 58.616,75.556 58.616,81.98 L 58.616,111.02 C 58.616,117.444 53.424,122.636 47,122.636 C 40.576,122.636 35.384,117.444 35.384,111.02 L 35.384,81.98"/><path d="M 47.078,25.494 C 40.654,25.494 35.462,20.302 35.462,13.878 C 35.462,7.454 40.654,2.262 47.078,2.262 C 53.502,2.262 58.694,7.454 58.694,13.878 L 58.694,25.494 L 47.078,25.494"/><path d="M 45.014,35.284 C 51.438,35.284 56.63,40.476 56.63,46.9 C 56.63,53.324 51.438,58.516 45.014,58.516 L 15.886,58.516 C 9.462,58.516 4.27,53.324 4.27,46.9 C 4.27,40.476 9.462,35.284 15.886,35.284 L 45.014,35.284"/><path d="M 101.406,46.978 C 101.406,40.554 106.598,35.362 113.022,35.362 C 119.446,35.362 124.638,40.554 124.638,46.978 C 124.638,53.402 119.446,58.594 113.022,58.594 L 101.406,58.594 L 101.406,46.978"/><path d="M 91.716,44.914 C 91.716,51.338 86.524,56.53 80.1,56.53 C 73.676,56.53 68.484,51.338 68.484,44.914 L 68.484,15.786 C 68.484,9.362 73.676,4.17 80.1,4.17 C 86.524,4.17 91.716,9.362 91.716,15.786 L 91.716,44.914 L 91.716,44.914"/><path d="M 80.022,101.306 C 86.446,101.306 91.638,106.498 91.638,112.922 C 91.638,119.346 86.446,124.538 80.022,124.538 C 73.598,124.538 68.406,119.346 68.406,112.922 L 68.406,101.306 L 80.022,101.306"/><path d="M 82.086,91.616 C 75.662,91.616 70.47,86.424 70.47,80 C 70.47,73.576 75.662,68.384 82.086,68.384 L 111.214,68.384 C 117.638,68.384 122.83,73.576 122.83,80 C 122.83,86.424 117.638,91.616 111.214,91.616 L 82.086,91.616"/></svg>